<?xml version="1.0" standalone="no"?>
<!DOCTYPE svg PUBLIC "-//W3C//DTD SVG 20010904//EN"
 "http://www.w3.org/TR/2001/REC-SVG-20010904/DTD/svg10.dtd">
<svg version="1.0" xmlns="http://www.w3.org/2000/svg"
 width="490.000000pt" height="490.000000pt" viewBox="0 0 490.000000 490.000000"
 preserveAspectRatio="xMidYMid meet">
<metadata>
Created by potrace 1.11, written by Peter Selinger 2001-2013
</metadata>
<g transform="translate(0.000000,490.000000) scale(0.100000,-0.100000)"
fill="#000000" stroke="none">
<path d="M1142 4830 l0 -70 186 -2 186 -3 17 -65 c9 -36 42 -150 72 -255 30
-104 74 -257 97 -340 22 -82 43 -158 46 -167 5 -17 -34 -18 -720 -18 l-726 0
0 -70 0 -70 328 0 329 0 63 -167 c34 -93 68 -181 75 -198 7 -16 43 -111 80
-210 37 -99 71 -187 75 -195 6 -12 -7 -34 -47 -80 -217 -255 -359 -585 -400
-930 -10 -82 -10 -335 0 -415 75 -608 459 -1134 996 -1365 78 -34 226 -83 288
-94 202 -39 418 -41 618 -5 153 27 398 127 546 222 475 305 773 861 773 1447
0 417 -130 790 -388 1108 l-67 84 126 326 c70 180 139 360 153 400 l27 72 332
0 333 0 0 70 0 70 -735 0 c-404 0 -735 3 -735 8 0 4 52 195 117 424 l118 418
190 0 190 0 -2 42 c-1 24 -2 55 -2 71 l-1 27 -420 0 c-474 0 -422 10 -422 -80
0 -22 1 -44 1 -50 1 -6 59 -10 154 -10 85 0 156 -3 159 -6 4 -3 -2 -31 -12
-62 -10 -31 -73 -250 -140 -487 -307 -1084 -537 -1894 -572 -2009 l-20 -68
-63 218 c-137 480 -269 942 -286 1004 -10 36 -36 130 -59 210 -23 80 -47 168
-55 195 -8 28 -72 255 -143 505 -71 250 -132 465 -135 478 l-5 22 163 0 163 0
-1 70 -1 70 -422 0 -422 0 0 -70z m780 -1510 c70 -245 129 -454 132 -465 3
-15 261 -926 281 -995 4 -11 20 -15 69 -15 35 0 67 3 70 6 6 6 12 26 265 919
184 647 195 685 216 755 7 22 25 86 40 143 l28 102 349 0 c191 0 348 -3 348
-7 0 -8 -52 -147 -71 -188 -5 -11 -281 -729 -615 -1595 -333 -866 -610 -1586
-616 -1600 l-10 -25 -14 35 c-7 19 -54 141 -103 270 -49 129 -186 489 -304
800 -118 311 -306 804 -417 1095 -111 292 -233 611 -270 710 -38 99 -96 252
-129 340 -34 87 -61 161 -61 162 0 2 154 2 342 1 l342 -3 128 -445z m-594
-527 c6 -16 58 -154 117 -308 59 -154 185 -485 280 -735 95 -250 203 -534 240
-630 146 -381 335 -882 335 -886 0 -2 -21 -2 -47 1 -653 73 -1191 607 -1299
1290 -19 126 -25 343 -10 450 40 301 138 547 309 778 28 37 54 67 58 67 4 0
12 -12 17 -27z m2209 -5 c44 -49 135 -194 183 -291 82 -170 139 -370 156 -547
8 -78 8 -255 0 -320 -13 -113 -17 -137 -37 -220 -118 -501 -467 -911 -925
-1088 -83 -32 -208 -66 -279 -77 -93 -14 -115 -15 -115 -6 0 9 65 179 168 441
25 63 55 142 67 175 26 73 483 1262 495 1290 23 52 250 647 250 655 0 17 15
11 37 -12z"/>
</g>
</svg>
